<svg xmlns="http://www.w3.org/2000/svg" viewBox="0 0 168 168" role="img" aria-label="Spotify">
  <circle cx="84" cy="84" r="84" fill="#1DB954"/>
  <path fill="#0a0a0a" d="M122.2 118.1c-1.8 2.9-5.5 3.8-8.4 2.1-23-14-51.9-17.2-86-9.4-3.3.8-6.6-1.3-7.3-4.6-.8-3.3 1.3-6.6 4.6-7.3 37.3-8.5 69.2-5 95.5 11.1 2.9 1.8 3.8 5.5 2 8.1zm12-26.8c-2.3 3.7-7.2 4.9-10.9 2.6-26.3-16.1-66.4-20.8-97.5-11.5-4.1 1.2-8.5-1.1-9.7-5.2-1.2-4.1 1.1-8.5 5.2-9.7 35.5-10.6 79.6-5.4 110.1 13.2 3.7 2.3 4.9 7.1 2.8 10.6zm1.1-27.9C104.1 44.8 52.7 41.8 22.8 51c-4.8 1.5-9.8-1.2-11.3-6s1.2-9.8 6-11.3c34.5-10.5 91.8-7.2 127.1 14.4 4.2 2.6 5.5 8.2 2.9 12.4-2.5 4.1-8 5.5-12.2 2.9z"/>
</svg>
